<?xml version="1.0" encoding="UTF-8"?>
<svg width="400px" height="200px" viewBox="0 0 400 200" version="1.1" xmlns="http://www.w3.org/2000/svg" xmlns:xlink="http://www.w3.org/1999/xlink">
    <title>company-08-capion</title>
    <defs>
        <path d="M0,0 L400,0 L400,200 L0,200 Z" id="path-1"></path>
    </defs>
    <g id="company-08-capion" stroke="none" fill="none" xlink:href="#path-1" fill-rule="evenodd">
        <use fill="#000000" xlink:href="#path-1"></use>
        <g id="Group" stroke-width="1" transform="translate(70, 70)" fill="#FFFFFF">
            <path d="M94.3033647,47.6982592 C97.4716218,47.6982592 100.254269,46.9294004 102.651305,45.3916828 C105.048342,43.8539652 106.809643,41.7319149 107.935208,39.0255319 L107.935208,39.0255319 L102.807634,36.8727273 C101.098442,40.6452611 98.1386232,42.531528 93.9281764,42.531528 C91.301858,42.531528 89.0298842,41.4858801 87.1122549,39.3945841 C85.2363132,37.3032882 84.2983424,34.7199226 84.2983424,31.6444874 C84.2983424,28.5690522 85.2363132,25.9856867 87.1122549,23.8943907 C89.0298842,21.8030948 91.301858,20.7574468 93.9281764,20.7574468 C98.0135605,20.7574468 100.869161,22.6437137 102.494977,26.4162476 L102.494977,26.4162476 L107.747613,24.2634429 C106.580361,21.55706 104.829482,19.4350097 102.494977,17.8972921 C100.160472,16.3595745 97.4299342,15.5907157 94.3033647,15.5907157 C89.7594171,15.5907157 85.9866899,17.1079304 82.9851832,20.1423598 C80.0253641,23.1767892 78.5454545,27.0108317 78.5454545,31.6444874 C78.5454545,36.1961315 80.0253641,40.0301741 82.9851832,43.1466151 C85.9866899,46.1810445 89.7594171,47.6982592 94.3033647,47.6982592 Z M123.693119,47.6982592 C127.65344,47.6982592 130.821697,45.9760155 133.19789,42.531528 L133.448016,42.531528 L133.448016,46.7141199 L138.950778,46.7141199 L138.950778,28.1384913 C138.950778,24.24294 137.720994,21.1777563 135.261426,18.94294 C132.801858,16.7081238 129.446007,15.5907157 125.193872,15.5907157 C119.732797,15.5907157 115.605726,17.5589942 112.812657,21.4955513 L117.8777,24.6324952 C119.753641,21.967118 122.296584,20.6344294 125.506529,20.6344294 C127.632596,20.6344294 129.487694,21.3212766 131.071823,22.694971 C132.655951,24.0686654 133.448016,25.7396518 133.448016,27.7079304 L133.448016,28.9996132 C131.238573,27.7694391 128.424661,27.154352 125.006278,27.154352 C121.004269,27.154352 117.804746,28.0769826 115.40771,29.9222437 C113.010673,31.7675048 111.812155,34.2483559 111.812155,37.3647969 C111.812155,40.3172147 112.948142,42.7775629 115.220116,44.7458414 C117.492089,46.7141199 120.316424,47.6982592 123.693119,47.6982592 Z M124.130839,42.6545455 C122.421647,42.6545455 120.931316,42.1624758 119.659844,41.1783366 C118.388373,40.1941973 117.752637,38.9640232 117.752637,37.4878143 C117.752637,35.8475822 118.534279,34.4738878 120.097564,33.3667311 C121.660849,32.2595745 123.609744,31.7059961 125.944249,31.7059961 C129.154193,31.7059961 131.655449,32.4030948 133.448016,33.7972921 C133.448016,36.1756286 132.499623,38.2464217 130.602837,40.0096712 C128.706052,41.7729207 126.548719,42.6545455 124.130839,42.6545455 Z M151.894776,60 L151.894776,46.7141199 L151.644651,42.531528 L151.894776,42.531528 C152.895279,44.0897485 154.323079,45.3404255 156.178177,46.283559 C158.033275,47.2266925 160.086388,47.6982592 162.337519,47.6982592 C166.381215,47.6982592 169.799598,46.1400387 172.592666,43.0235977 C175.46911,39.9071567 176.907332,36.1141199 176.907332,31.6444874 C176.907332,27.2158607 175.46911,23.422824 172.592666,20.2653772 C169.799598,17.1489362 166.381215,15.5907157 162.337519,15.5907157 C160.086388,15.5907157 158.033275,16.0622824 156.178177,17.0054159 C154.323079,17.9485493 152.895279,19.1992263 151.894776,20.7574468 L151.894776,20.7574468 L151.644651,20.7574468 L151.644651,16.5748549 L146.141889,16.5748549 L146.141889,60 L151.894776,60 Z M161.399548,42.531528 C158.606479,42.531528 156.271974,41.5268859 154.396032,39.5176015 C152.561778,37.4673114 151.644651,34.84294 151.644651,31.6444874 C151.644651,28.4870406 152.561778,25.8831721 154.396032,23.832882 C156.271974,21.7825919 158.606479,20.7574468 161.399548,20.7574468 C164.150929,20.7574468 166.46459,21.7825919 168.340532,23.832882 C170.216474,25.8831721 171.154444,28.4870406 171.154444,31.6444874 C171.154444,34.84294 170.216474,37.4468085 168.340532,39.4560928 C166.46459,41.506383 164.150929,42.531528 161.399548,42.531528 Z M186.161979,10.1779497 C187.287544,10.1779497 188.246359,9.78839458 189.038423,9.00928433 C189.830487,8.23017408 190.226519,7.28704062 190.226519,6.17988395 C190.226519,5.07272727 189.830487,4.12959381 189.038423,3.35048356 C188.246359,2.57137331 187.287544,2.18181818 186.161979,2.18181818 C185.036414,2.18181818 184.077599,2.57137331 183.285535,3.35048356 C182.493471,4.12959381 182.097439,5.07272727 182.097439,6.17988395 C182.097439,7.28704062 182.493471,8.23017408 183.285535,9.00928433 C184.077599,9.78839458 185.036414,10.1779497 186.161979,10.1779497 Z M189.038423,46.7141199 L189.038423,16.5748549 L183.285535,16.5748549 L183.285535,46.7141199 L189.038423,46.7141199 Z M211.174536,47.6982592 C215.718483,47.6982592 219.470367,46.1810445 222.430186,43.1466151 C225.431693,40.1531915 226.932446,36.3191489 226.932446,31.6444874 C226.932446,27.0108317 225.431693,23.1767892 222.430186,20.1423598 C219.470367,17.1079304 215.718483,15.5907157 211.174536,15.5907157 C206.630588,15.5907157 202.857861,17.1079304 199.856354,20.1423598 C196.896535,23.1767892 195.416626,27.0108317 195.416626,31.6444874 C195.416626,36.2781431 196.896535,40.1121857 199.856354,43.1466151 C202.857861,46.1810445 206.630588,47.6982592 211.174536,47.6982592 Z M211.174536,42.531528 C208.339779,42.531528 205.963587,41.5268859 204.045957,39.5176015 C202.128328,37.5083172 201.169513,34.8839458 201.169513,31.6444874 C201.169513,28.4460348 202.128328,25.8421663 204.045957,23.832882 C206.005274,21.7825919 208.381467,20.7574468 211.174536,20.7574468 C213.967604,20.7574468 216.343797,21.7825919 218.303114,23.832882 C220.220743,25.8421663 221.179558,28.4460348 221.179558,31.6444874 C221.179558,34.8839458 220.220743,37.5083172 218.303114,39.5176015 C216.385485,41.5268859 214.009292,42.531528 211.174536,42.531528 Z M238.250628,46.7141199 L238.250628,30.0452611 C238.250628,27.5029014 239.021849,25.3193424 240.56429,23.4945841 C242.106731,21.6698259 244.02436,20.7574468 246.317178,20.7574468 C251.236314,20.7574468 253.758413,23.217795 253.883476,28.1384913 L253.883476,28.1384913 L253.883476,46.7141199 L259.636364,46.7141199 L259.636364,27.7694391 C259.636364,23.8738878 258.62544,20.8702128 256.603591,18.7584139 C254.581743,16.6466151 251.694877,15.5907157 247.942994,15.5907157 C245.983677,15.5907157 244.097313,16.0827853 242.283903,17.0669246 C240.470493,18.0510638 239.126068,19.2812379 238.250628,20.7574468 L238.250628,20.7574468 L238.000503,20.7574468 L238.000503,16.5748549 L232.497741,16.5748549 L232.497741,46.7141199 L238.250628,46.7141199 Z" id="capion" fill-rule="nonzero"></path>
            <path d="M30,0 C46.5685425,0 60,13.4314575 60,30 C60,35.5605846 58.4821889,40.9050906 55.6554274,45.5575612 L53.8001243,48.6111414 L30.0919424,24.9030216 L29.999,24.995 L29.999,17.06 L30.0920248,16.9673199 L52.5155396,39.3906475 L52.5796682,39.2368235 C53.7284753,36.4319587 54.3490048,33.4132042 54.386666,30.3014261 L54.3884892,30 C54.3884892,16.5306093 43.4693907,5.61151079 30,5.61151079 C16.5306093,5.61151079 5.61151079,16.5306093 5.61151079,30 C5.61151079,43.4693907 16.5306093,54.3884892 30,54.3884892 C33.2182232,54.3884892 36.3414792,53.7655336 39.2368235,52.5796682 L39.3906475,52.5155396 L29.999,43.124 L29.999,35.187 L48.6111414,53.8001243 L45.5575612,55.6554274 C40.9050906,58.4821889 35.5605846,60 30,60 C13.4314575,60 0,46.5685425 0,30 C0,13.4314575 13.4314575,0 30,0 Z" id="Combined-Shape" fill-rule="nonzero"></path>
        </g>
    </g>
</svg>