<?xml version="1.0" encoding="UTF-8"?>
<svg width="400px" height="200px" viewBox="0 0 400 200" version="1.1" xmlns="http://www.w3.org/2000/svg" xmlns:xlink="http://www.w3.org/1999/xlink">
    <title>company-05-motility</title>
    <defs>
        <path d="M0,0 L400,0 L400,200 L0,200 Z" id="path-1"></path>
    </defs>
    <g id="company-05-motility" stroke="none" fill="none" xlink:href="#path-1" fill-rule="evenodd">
        <use fill="#000000" xlink:href="#path-1"></use>
        <g id="Group" stroke-width="1" transform="translate(92, 75)">
            <g>
                <g>
                    <path d="M7.05546526,0.492695597 C12.9441673,0.164231865 18.8869984,0 24.8839587,0 C30.9501079,0 37.0162945,0.168043328 43.0825182,0.504129985 L43.0825197,0.504104581 C46.6165989,0.6996665 49.4429752,3.54415698 49.6514327,7.11511754 C49.9265745,11.825027 50.064155,17.1254765 50.064155,23.0164671 C50.064155,29.599018 49.8923765,36.1820933 49.5488199,42.7656928 L49.5488334,42.7656936 C49.362965,46.3299889 46.5659238,49.1889367 43.0416085,49.4169422 C37.0384305,49.8056388 31.035254,50 25.0320775,50 C19.019077,50 13.0060766,49.8050022 6.99307611,49.4150066 L6.99307745,49.4149853 C3.47768426,49.186813 0.684932596,46.3406066 0.48848645,42.785893 C0.162818075,36.8846707 0,30.9560391 0,25 C0,19.0434707 0.162844885,13.0869225 0.488534655,7.13035575 L0.488499508,7.13035379 C0.683954543,3.54970886 3.51267201,0.690551458 7.05546656,0.492719349 L7.05546526,0.492695597 Z" id="Rectangle" fill="#FFFFFF"></path>
                    <g id="Path" transform="translate(11.4422, 16.2425)" fill="#000000">
                        <path d="M0.592475207,17.4401198 L4.62871255,17.4401198 C4.95592757,17.4401198 5.22118776,17.1720268 5.22118776,16.8413174 L5.22118776,8.38323353 L5.22118776,8.38323353 L9.95389853,13.48256 C11.8567205,15.5327826 15.0437347,15.6358013 17.0722938,13.7126586 C17.15059,13.6384311 17.2265178,13.5616924 17.299961,13.48256 L22.0326717,8.38323353 L22.0326717,8.38323353 L13.6269298,9.35628743 L5.3975171,0.196269175 C5.28522086,0.0712741516 5.12593308,0 4.95888287,0 L0.592475207,0 C0.265260185,0 0,0.268092964 0,0.598802395 L0,16.8413174 C0,17.1720268 0.265260185,17.4401198 0.592475207,17.4401198 Z"></path>
                        <path d="M5.22118776,8.38323353 L9.95389853,13.48256 C11.8567205,15.5327826 15.0437347,15.6358013 17.0722938,13.7126586 C17.15059,13.6384311 17.2265178,13.5616924 17.299961,13.48256 L22.0326717,8.38323353 L22.0326717,8.38323353 L22.0326717,12.6497006 C22.0326717,12.98041 22.2979319,13.248503 22.625147,13.248503 L26.6613843,13.248503 C26.9885993,13.248503 27.2538595,12.98041 27.2538595,12.6497006 L27.2538595,0.598802395 C27.2538595,0.268092964 26.9885993,0 26.6613843,0 L14.7378208,0 C14.4106057,0 14.1453456,0.268092964 14.1453456,0.598802395 L14.1454786,4.49101796 C14.1454786,4.82167488 14.4106577,5.08974609 14.7378208,5.08982034 L17.4592724,5.09057247 L17.4592724,5.09057247 L13.6269298,9.35628743 C12.3926064,10.503992 11.0348507,11.0279441 9.55366271,10.9281437 C8.07247469,10.8283433 6.62831637,9.98003993 5.22118776,8.38323353 Z"></path>
                    </g>
                </g>
                <g id="Motility" transform="translate(65.3703, 9.1063)" fill="#FFFFFF">
                    <path d="M5.67069591,28.7805903 L0,28.7805903 L3.48768398,6.39629019 C3.70940857,5.05012632 4.25983887,4.02541635 5.13897488,3.32216037 C6.01811087,2.61890439 7.1117067,2.26727638 8.41976236,2.26727638 C9.56500767,2.26727638 10.5816766,2.54336873 11.4697692,3.09555343 C12.3578617,3.64773811 12.9597425,4.54521425 13.2754114,5.78798186 L17.5608263,22.0041074 C17.5755548,22.0737088 17.5980457,22.1085095 17.628299,22.1085095 C17.650989,22.1085095 17.6660161,22.1051903 17.6733803,22.0985522 C17.6807446,22.0919138 17.6882085,22.0604323 17.6957717,22.0041074 L21.9423748,5.89117702 C22.2580438,4.64840943 22.8750512,3.73584627 23.7933969,3.15348756 C24.7117428,2.57112883 25.7520969,2.27994948 26.9144591,2.27994948 C28.1878827,2.27994948 29.2535142,2.6380146 30.1113536,3.35414484 C30.9691928,4.07027507 31.4962366,5.1229463 31.6924848,6.51215846 L34.8356397,28.7679173 L29.2031584,28.7679173 L26.7174148,8.35941235 C26.7182109,8.25319978 26.7046767,8.17816714 26.6768119,8.13431415 C26.648947,8.0904613 26.5950085,8.06853481 26.5149967,8.06853481 C26.4672284,8.06853481 26.4212512,8.0863375 26.3770656,8.12194289 C26.33288,8.15754813 26.3030247,8.22020951 26.2875001,8.30992702 L21.51246,25.5332616 C21.2306269,26.5096932 20.7393099,27.2397034 20.038509,27.7232924 C19.337708,28.2068815 18.5343047,28.4486761 17.628299,28.4486761 C16.7477698,28.4486761 15.9400871,28.215632 15.2052512,27.7495439 C14.4704153,27.2834558 13.9833776,26.5837201 13.744138,25.6503369 L8.98283136,8.28458091 C8.96730664,8.18681699 8.94143214,8.12435681 8.90520784,8.09720007 C8.86898355,8.07004349 8.82320556,8.05646519 8.76787395,8.05646519 C8.71214424,8.05646519 8.66208703,8.07627942 8.61770231,8.11590801 C8.57331758,8.1555366 8.5475426,8.23248031 8.54037735,8.3467393 L5.67069591,28.7805903 Z" id="Path"></path>
                    <path d="M48.0189637,29.2851001 C46.0811624,29.2851001 44.3409031,28.8278631 42.7981856,27.9133888 C41.255468,26.9989147 40.0294146,25.7751567 39.1200255,24.242115 C38.2106362,22.7090733 37.7559415,21.015204 37.7559415,19.1605071 C37.7559415,17.3058103 38.2106362,15.6184787 39.1200255,14.0985124 C40.0294146,12.578546 41.2574584,11.3633374 42.8041566,10.4528865 C44.3508547,9.5424354 46.0891238,9.08720996 48.0189637,9.08720996 C49.9651243,9.08720996 51.7117529,9.5424354 53.2588491,10.4528865 C54.8059454,11.3633374 56.027819,12.5806582 56.9244701,14.1048489 C57.8211212,15.6290396 58.2694467,17.3142591 58.2694467,19.1605071 C58.2694467,21.015204 57.8211212,22.7090733 56.9244701,24.242115 C56.027819,25.7751567 54.8038556,26.9989147 53.2525795,27.9133888 C51.7013036,28.8278631 49.9567649,29.2851001 48.0189637,29.2851001 Z M48.0189637,24.125945 C48.9627859,24.125945 49.7945517,23.9026573 50.514261,23.4560815 C51.2339703,23.0095061 51.802015,22.4117585 52.2183955,21.6628391 C52.634776,20.9139198 52.8429663,20.0926835 52.8429663,19.1991299 C52.8429663,18.2882766 52.634776,17.4584908 52.2183955,16.7097727 C51.802015,15.9610544 51.2339703,15.363307 50.514261,14.9165302 C49.7945517,14.4697535 48.9627859,14.246365 48.0189637,14.246365 C47.0922584,14.246365 46.2647718,14.4697535 45.5365041,14.9165302 C44.8082364,15.363307 44.2338224,15.9610544 43.8132623,16.7097727 C43.3927021,17.4584908 43.1824219,18.2882766 43.1824219,19.1991299 C43.1824219,20.0926835 43.3927021,20.9139198 43.8132623,21.6628391 C44.2338224,22.4117585 44.8082364,23.0095061 45.5365041,23.4560815 C46.2647718,23.9026573 47.0922584,24.125945 48.0189637,24.125945 Z" id="Shape" fill-rule="nonzero"></path>
                    <path d="M71.4405417,29.3237228 C69.6229574,29.3237228 68.1067116,28.9791356 66.8918041,28.2899607 C65.6768967,27.600786 64.7649199,26.6427606 64.1558739,25.4158847 C63.5468279,24.1890088 63.242305,22.7880287 63.242305,21.2129444 L63.242305,4.76568581 L68.6687854,4.76568581 L68.6687854,21.0306933 C68.6687854,22.1069002 68.9647499,22.9396028 69.556679,23.528801 C70.1486079,24.1179992 70.9437513,24.4125983 71.942109,24.4125983 C72.4838814,24.4125983 73.0734219,24.3316312 73.7107309,24.1696974 C74.3480397,24.0077634 74.8959821,23.7773344 75.354558,23.4784104 L75.354558,28.3883281 C74.8705057,28.6788034 74.2647438,28.9073213 73.5372722,29.073882 C72.8098007,29.2404426 72.1108904,29.3237228 71.4405417,29.3237228 Z M75.354558,14.2674869 L59.7725341,14.2674869 L59.7725341,9.64301549 L75.354558,9.64301549 L75.354558,14.2674869 Z" id="Shape" fill-rule="nonzero"></path>
                    <path d="M79.8146527,9.64301549 L85.2411331,9.64301549 L85.2411331,28.7679173 L79.8146527,28.7679173 L79.8146527,9.64301549 Z M82.5278929,6.80001864 C81.9287985,6.80001864 81.3702079,6.64854513 80.8521206,6.34559783 C80.3340335,6.04265067 79.9252164,5.62946763 79.6256692,5.10604883 C79.326122,4.58263006 79.1763485,4.01395022 79.1763485,3.40000936 C79.1763485,2.76836639 79.326122,2.19516046 79.6256692,1.68039156 C79.9252164,1.16562266 80.3340335,0.75686518 80.8521206,0.454119102 C81.3702079,0.151373039 81.9287985,0 82.5278929,0 C83.1528616,0 83.7159305,0.151373039 84.2170998,0.454119102 C84.718269,0.75686518 85.1186271,1.16562266 85.4181743,1.68039156 C85.7177215,2.19516046 85.867495,2.76836639 85.867495,3.40000936 C85.867495,4.01395022 85.7177215,4.58263006 85.4181743,5.10604883 C85.1186271,5.62946763 84.718269,6.04265067 84.2170998,6.34559783 C83.7159305,6.64854513 83.1528616,6.80001864 82.5278929,6.80001864 Z" id="Shape" fill-rule="nonzero"></path>
                    <polygon id="Path" points="91.0332714 0.846683189 96.4597518 0.846683189 96.4597518 28.7679173 91.0332714 28.7679173"></polygon>
                    <path d="M102.338032,9.64301549 L107.764513,9.64301549 L107.764513,28.7679173 L102.338032,28.7679173 L102.338032,9.64301549 Z M105.051272,6.80001864 C104.452178,6.80001864 103.893587,6.64854513 103.3755,6.34559783 C102.857413,6.04265067 102.448596,5.62946763 102.149049,5.10604883 C101.849502,4.58263006 101.699728,4.01395022 101.699728,3.40000936 C101.699728,2.76836639 101.849502,2.19516046 102.149049,1.68039156 C102.448596,1.16562266 102.857413,0.75686518 103.3755,0.454119102 C103.893587,0.151373039 104.452178,0 105.051272,0 C105.676241,0 106.23931,0.151373039 106.740479,0.454119102 C107.241649,0.75686518 107.642007,1.16562266 107.941554,1.68039156 C108.241101,2.19516046 108.390875,2.76836639 108.390875,3.40000936 C108.390875,4.01395022 108.241101,4.58263006 107.941554,5.10604883 C107.642007,5.62946763 107.241649,6.04265067 106.740479,6.34559783 C106.23931,6.64854513 105.676241,6.80001864 105.051272,6.80001864 Z" id="Shape" fill-rule="nonzero"></path>
                    <path d="M122.648911,29.3237228 C120.831327,29.3237228 119.315081,28.9791356 118.100174,28.2899607 C116.885266,27.600786 115.97329,26.6427606 115.364244,25.4158847 C114.755198,24.1890088 114.450675,22.7880287 114.450675,21.2129444 L114.450675,4.76568581 L119.877155,4.76568581 L119.877155,21.0306933 C119.877155,22.1069002 120.173119,22.9396028 120.765048,23.528801 C121.356978,24.1179992 122.152121,24.4125983 123.150479,24.4125983 C123.692251,24.4125983 124.281792,24.3316312 124.9191,24.1696974 C125.556409,24.0077634 126.104352,23.7773344 126.562928,23.4784104 L126.562928,28.3883281 C126.078875,28.6788034 125.473113,28.9073213 124.745642,29.073882 C124.01817,29.2404426 123.31926,29.3237228 122.648911,29.3237228 Z M126.562928,14.2674869 L110.980904,14.2674869 L110.980904,9.64301549 L126.562928,9.64301549 L126.562928,14.2674869 Z" id="Shape" fill-rule="nonzero"></path>
                    <path d="M139.410541,38.1200552 C137.169013,38.1200552 135.238476,37.6485357 133.618931,36.7054968 C131.999387,35.7624579 130.751937,34.4010058 129.876583,32.6211405 L134.376955,30.1655782 C134.797714,30.9834956 135.421489,31.6756876 136.248279,32.2421547 C137.075068,32.8086218 138.099102,33.0918553 139.320378,33.0918553 C140.417059,33.0918553 141.343366,32.8404052 142.0993,32.3375047 C142.855233,31.8346043 143.436116,31.1374836 143.841948,30.2461429 C144.247779,29.3548022 144.446714,28.315508 144.438753,27.1282607 L144.438753,24.1784478 L145.538021,23.7554079 C145.348938,24.8815026 144.99396,25.8334932 144.473086,26.6113796 C143.952213,27.3892659 143.271315,27.9815821 142.430394,28.3883281 C141.589473,28.7950739 140.577879,28.9984469 139.395613,28.9984469 C137.362275,28.9984469 135.695261,28.5859679 134.394569,27.76101 C133.093878,26.9360522 132.131446,25.7976866 131.507273,24.3459137 C130.883101,22.8941406 130.571014,21.2234047 130.571014,19.3337061 L130.571014,9.64301549 L135.919871,9.64301549 L135.919871,19.1538688 C135.919871,20.5495182 136.280323,21.6793344 137.001227,22.5433173 C137.72213,23.4073002 138.752134,23.8392917 140.091239,23.8392917 C140.906087,23.8392917 141.635748,23.6310909 142.280222,23.2146894 C142.924696,22.7982878 143.432533,22.2223662 143.803733,21.4869246 C144.174933,20.751483 144.360532,19.9283356 144.360532,19.0174823 L144.360532,9.64301549 L149.865234,9.64301549 L149.865234,27.0757579 C149.865234,29.2937501 149.426263,31.2317272 148.54832,32.8896894 C147.670378,34.5476516 146.446316,35.8338698 144.876132,36.7483439 C143.305947,37.662818 141.484084,38.1200552 139.410541,38.1200552 Z" id="Path"></path>
                </g>
            </g>
        </g>
    </g>
</svg>